<svg width="108" height="108" viewBox="0 0 108 108" fill="none" xmlns="http://www.w3.org/2000/svg">
<g clip-path="url(#clip0_752_382)">
<rect width="108" height="108" rx="8" fill="white"/>
<path d="M53.6411 62.1987C65.5701 62.1987 75.2404 52.5283 75.2404 40.5993C75.2404 28.6704 65.5701 19 53.6411 19C41.7121 19 32.0417 28.6704 32.0417 40.5993C32.0417 52.5283 41.7121 62.1987 53.6411 62.1987Z" fill="#00AED6"/>
<path fill-rule="evenodd" clip-rule="evenodd" d="M66.2407 39.9694C66.0607 37.2695 63.7207 35.1096 61.0208 35.2896H47.3412C46.8012 35.2896 46.4413 34.9296 46.4413 34.3896C46.4413 33.8496 46.8012 33.4896 47.3412 33.4896H61.2008C61.1108 31.6897 59.7609 29.7997 58.0509 29.5297C54.001 28.8098 49.8612 28.8098 45.9013 29.5297C43.6513 29.8897 41.9414 32.1396 41.5814 34.2996C40.9514 38.5295 40.9514 42.8493 41.5814 47.0792C42.0314 49.5091 44.0113 51.4891 46.5313 51.849C51.5711 52.479 56.611 52.479 61.5608 51.849C63.8107 51.5791 65.2507 49.5091 65.7007 47.3492C66.1507 44.8293 66.3307 42.3993 66.2407 39.9694ZM61.7408 42.9393V43.7493C61.7408 44.2893 61.3808 44.6493 60.8408 44.6493C60.3008 44.6493 59.9409 44.2893 59.9409 43.7493V42.9393C59.6709 42.6693 59.4909 42.3093 59.4909 41.9493C59.4909 41.2294 60.1208 40.5994 60.8408 40.5994C61.5608 40.5994 62.1908 41.2294 62.1908 41.9493C62.1908 42.3093 62.0108 42.6693 61.7408 42.9393Z" fill="white"/>
<path d="M21.0621 83.798C21.9621 85.148 23.492 85.868 25.112 85.778C27.0019 85.778 28.3519 84.608 28.3519 82.988V82.0881C27.3619 83.078 25.9219 83.618 24.482 83.528C20.9721 83.618 18.0922 80.9181 18.0022 77.4082C17.9122 73.8983 20.6121 71.0184 24.122 70.9284C24.212 70.9284 24.302 70.9284 24.392 70.9284C25.8319 70.8384 27.2719 71.3784 28.3519 72.3684V71.1984H31.5918V82.898C31.5918 86.3179 28.8919 88.6579 25.112 88.6579C22.592 88.8379 20.2521 87.7579 18.6322 85.778L21.0621 83.798ZM28.2619 76.5082C28.2619 75.1583 26.7319 73.8983 25.022 73.8983C22.862 73.8983 21.4221 75.2483 21.4221 77.2282C21.3321 78.9382 22.592 80.4681 24.392 80.6481C24.572 80.6481 24.752 80.6481 24.932 80.6481C26.8219 80.6481 28.3519 79.4782 28.3519 78.0382V76.5082H28.2619Z" fill="black"/>
<path d="M40.0515 70.8384C44.0114 70.8384 46.8013 73.6283 46.8013 77.2282C46.8013 80.8281 43.9214 83.618 40.0515 83.618C36.5416 83.798 33.4817 81.0981 33.3017 77.5882C33.1217 74.0783 35.7316 71.0184 39.2415 70.8384C39.5115 70.8384 39.7815 70.8384 40.0515 70.8384ZM40.0515 73.8083C38.1616 73.8083 36.6316 75.3382 36.6316 77.2282C36.6316 79.1181 38.1616 80.6481 40.0515 80.6481C41.9415 80.6481 43.4714 79.1181 43.4714 77.2282C43.5614 75.4282 42.1214 73.8983 40.4115 73.8083C40.2315 73.8083 40.1415 73.8083 40.0515 73.8083Z" fill="black"/>
<path d="M48.6912 71.1984H51.9311V72.2783H52.0211C53.1011 71.2884 54.451 70.8384 55.891 70.8384C59.4009 70.9284 62.1908 73.8083 62.1008 77.3182C62.0108 80.7381 59.3109 83.438 55.891 83.528C54.541 83.528 53.1911 83.078 52.1111 82.268H52.0211V88.2978H48.6912V71.1984ZM55.261 73.8083C53.4611 73.8083 52.0211 75.0683 52.0211 76.4182V77.9482C52.0211 79.3881 53.4611 80.5581 55.351 80.5581C57.241 80.5581 58.7709 79.0281 58.6809 77.1382C58.6809 75.3382 57.151 73.8083 55.261 73.8083Z" fill="black"/>
<path d="M68.4007 76.0582C70.5606 75.7882 71.2806 75.4282 71.2806 74.7983C71.2806 73.9883 70.4706 73.5383 69.1206 73.5383C67.7707 73.4483 66.4207 74.3483 66.1507 75.6982L63.0008 75.0683C63.4508 72.6383 65.9707 70.8384 69.1206 70.8384C72.6305 70.8384 74.7905 72.6383 74.7905 75.5182V83.168H71.6406V81.818C70.6506 82.988 69.1206 83.618 67.5907 83.438C64.9808 83.438 63.0908 81.998 63.0908 79.8381C63.0908 77.6782 64.5308 76.5982 68.4007 76.0582ZM71.4606 77.3182C71.1006 77.7682 70.4706 78.0382 68.8506 78.3082C66.8707 78.6681 66.1507 79.0281 66.1507 79.7481C66.1507 80.4681 66.7807 80.8281 68.0407 80.8281C69.9306 80.8281 71.4606 79.9281 71.4606 78.7581V77.3182Z" fill="black"/>
<path d="M80.7303 82.538L75.2404 71.1984H78.9303L82.6202 79.0281H82.7102L86.3101 71.1984H90L81.7203 88.2978H77.9404L80.7303 82.538Z" fill="black"/>
</g>
<defs>
<clipPath id="clip0_752_382">
<rect width="108" height="108" rx="8" fill="white"/>
</clipPath>
</defs>
</svg>
